<svg width="914" height="601" viewBox="0 0 914 601" fill="none" xmlns="http://www.w3.org/2000/svg">
<style>
@-webkit-@keyframes smooth-shake {
  0%,
  100% {
    transform: translate(-5px, -5px) rotate(0deg);
  }

  50% {
    transform: translate(0, 0) rotate(0deg);
  }
}
@keyframes smooth-shake {
  0%,
  100% {
    transform: translate(-5px, -5px) rotate(0deg);
  }

  50% {
    transform: translate(0, 0) rotate(0deg);
  }
}

#dart{
    animation: smooth-shake 2.5s ease-in-out infinite;
    -webkit-animation: animation: smooth-shake 1.5s ease-in-out infinite;
    -webkit-transform-origin: center;
      -ms-transform-origin: center;
      transform-origin: center;
      transform-box: fill-box;
}
</style>
<g id="Group 1000003096">
<g id="Rectangle 1537" filter="url(#filter0_b_4205_22475)">
<rect width="914" height="601" rx="38" fill="url(#paint0_linear_4205_22475)" fill-opacity="0.67"/>
<rect x="0.5" y="0.5" width="913" height="600" rx="37.5" stroke="url(#paint1_linear_4205_22475)" stroke-opacity="0.6"/>
<rect x="0.5" y="0.5" width="913" height="600" rx="37.5" stroke="url(#paint2_linear_4205_22475)"/>
</g>
<g id="Frame" clip-path="url(#clip0_4205_22475)">
<g id="Group">
<path id="Vector" d="M168.325 434.118C168.259 434.043 168.221 433.956 168.206 433.849C168.172 433.585 168.364 433.334 168.635 433.307C169.904 433.155 171.191 432.947 172.453 432.695C172.718 432.647 172.97 432.81 173.033 433.076C173.081 433.341 172.917 433.593 172.652 433.656C171.361 433.92 170.052 434.134 168.754 434.285C168.577 434.296 168.425 434.23 168.325 434.118ZM175.96 432.56C175.913 432.508 175.874 432.449 175.858 432.37C175.788 432.111 175.931 431.836 176.19 431.766C177.423 431.406 178.658 430.989 179.854 430.528C180.1 430.429 180.39 430.559 180.489 430.806C180.588 431.053 180.458 431.343 180.205 431.434C178.98 431.908 177.723 432.33 176.469 432.696C176.281 432.756 176.079 432.694 175.96 432.56ZM183.249 429.756C183.223 429.726 183.197 429.682 183.178 429.646C183.057 429.405 183.159 429.114 183.4 428.993C184.559 428.43 185.707 427.825 186.808 427.166C187.035 427.031 187.343 427.106 187.471 427.34C187.606 427.567 187.531 427.875 187.297 428.003C186.175 428.667 185.005 429.292 183.817 429.867C183.626 429.97 183.389 429.913 183.249 429.756ZM189.962 425.793C189.949 425.778 189.936 425.763 189.929 425.755C189.772 425.534 189.825 425.232 190.047 425.075C191.17 424.277 192.245 423.454 193.151 422.742C193.359 422.57 193.662 422.609 193.834 422.817C193.998 423.032 193.959 423.335 193.751 423.507C192.845 424.219 191.755 425.055 190.617 425.866C190.402 426.017 190.128 425.979 189.962 425.793ZM196.155 421.034C196.148 421.026 196.142 421.019 196.135 421.011C195.97 420.796 196.009 420.494 196.224 420.329C197.448 419.388 198.454 418.654 199.406 418.008C199.634 417.858 199.936 417.912 200.085 418.14C200.235 418.368 200.175 418.662 199.953 418.819C199.024 419.445 198.026 420.173 196.824 421.094C196.617 421.252 196.328 421.228 196.155 421.034ZM202.667 416.74C202.641 416.71 202.614 416.68 202.603 416.637C202.482 416.396 202.57 416.104 202.811 415.983C203.972 415.378 205.193 414.854 206.445 414.396C206.698 414.305 206.974 414.434 207.066 414.688C207.157 414.941 207.028 415.217 206.774 415.308C205.565 415.755 204.381 416.273 203.256 416.845C203.045 416.953 202.814 416.904 202.667 416.74ZM209.978 414.065C209.925 414.005 209.886 413.932 209.87 413.853C209.807 413.587 209.964 413.327 210.23 413.265C211.501 412.964 212.811 412.736 214.13 412.579C214.395 412.545 214.645 412.737 214.672 413.008C214.706 413.272 214.514 413.522 214.244 413.549C212.96 413.701 211.686 413.924 210.45 414.22C210.279 414.252 210.091 414.192 209.978 414.065ZM217.717 413.136C217.644 413.054 217.594 412.938 217.594 412.817C217.596 412.548 217.814 412.327 218.077 412.321C219.388 412.306 220.709 412.362 222.026 412.488C222.294 412.518 222.492 412.757 222.47 413.017C222.44 413.285 222.202 413.483 221.941 413.461C220.659 413.343 219.366 413.289 218.09 413.3C217.942 413.298 217.804 413.233 217.717 413.136ZM225.481 413.859C225.381 413.747 225.34 413.596 225.363 413.441C225.422 413.176 225.672 413.006 225.938 413.064C226.771 413.233 227.61 413.424 228.419 413.641C228.865 413.767 229.325 413.893 229.77 414.032C230.028 414.111 230.175 414.382 230.096 414.639C230.017 414.896 229.746 415.044 229.489 414.965C229.05 414.833 228.612 414.701 228.172 414.583C227.378 414.367 226.567 414.178 225.755 414.017C225.636 413.989 225.547 413.934 225.481 413.859ZM232.941 416.137C232.821 416.003 232.776 415.802 232.857 415.622C232.957 415.373 233.24 415.255 233.496 415.362C234.699 415.857 235.899 416.423 237.074 417.037C237.308 417.164 237.404 417.453 237.284 417.694C237.163 417.935 236.868 418.024 236.627 417.904C235.479 417.305 234.307 416.755 233.132 416.262C233.041 416.235 232.987 416.189 232.941 416.137ZM239.848 419.75C239.708 419.593 239.68 419.35 239.797 419.166C239.945 418.941 240.246 418.873 240.471 419.021C241.564 419.722 242.66 420.474 243.704 421.271C243.914 421.432 243.96 421.74 243.799 421.95C243.638 422.16 243.331 422.206 243.121 422.045C242.09 421.262 241.021 420.526 239.942 419.84C239.915 419.81 239.875 419.779 239.848 419.75ZM246.076 424.449C245.916 424.269 245.911 423.993 246.078 423.804C246.26 423.602 246.565 423.585 246.767 423.767C247.744 424.624 248.703 425.537 249.626 426.484C249.813 426.679 249.816 426.984 249.621 427.17C249.426 427.357 249.121 427.361 248.934 427.166C248.025 426.234 247.079 425.336 246.123 424.487C246.11 424.472 246.089 424.464 246.076 424.449Z" fill="white"/>
</g>
</g>
<g id="Group_2">
<path id="Vector_2" d="M628.917 535.616C627.777 535.616 626.617 535.586 625.487 535.546C625.217 535.536 625.007 535.306 625.017 535.036C625.027 534.766 625.247 534.556 625.527 534.566C626.647 534.616 627.787 534.636 628.917 534.636H629.407C629.677 534.636 629.897 534.856 629.897 535.126C629.897 535.396 629.677 535.616 629.407 535.616H628.917ZM633.317 535.496C633.057 535.496 632.847 535.296 632.827 535.036C632.817 534.766 633.017 534.536 633.287 534.526C634.567 534.456 635.867 534.356 637.157 534.216C637.427 534.186 637.667 534.386 637.697 534.656C637.727 534.926 637.527 535.166 637.257 535.196C635.957 535.336 634.637 535.436 633.337 535.506C633.337 535.496 633.327 535.496 633.317 535.496ZM621.617 535.276C621.597 535.276 621.587 535.276 621.567 535.276C620.267 535.156 618.957 534.996 617.667 534.806C617.397 534.766 617.217 534.516 617.257 534.256C617.297 533.986 617.547 533.806 617.807 533.846C619.077 534.036 620.377 534.186 621.657 534.306C621.927 534.336 622.127 534.566 622.097 534.836C622.077 535.086 621.867 535.276 621.617 535.276ZM641.077 534.686C640.837 534.686 640.637 534.516 640.597 534.276C640.557 534.006 640.737 533.756 641.007 533.716C642.277 533.516 643.567 533.296 644.827 533.036C645.087 532.986 645.347 533.156 645.407 533.416C645.457 533.676 645.287 533.936 645.027 533.996C643.747 534.256 642.447 534.486 641.157 534.686C641.127 534.686 641.107 534.686 641.077 534.686ZM613.887 534.146C613.857 534.146 613.827 534.146 613.787 534.136C612.507 533.876 611.217 533.586 609.957 533.266C609.697 533.196 609.537 532.936 609.607 532.676C609.677 532.416 609.937 532.256 610.197 532.326C611.437 532.646 612.717 532.936 613.977 533.186C614.237 533.236 614.417 533.496 614.357 533.756C614.317 533.986 614.117 534.146 613.887 534.146ZM648.727 533.136C648.507 533.136 648.317 532.986 648.257 532.766C648.187 532.506 648.347 532.236 648.607 532.176C649.817 531.866 651.067 531.476 652.297 531.036C652.547 530.946 652.827 531.076 652.917 531.336C653.007 531.586 652.877 531.866 652.617 531.956C651.357 532.406 650.087 532.796 648.847 533.116C648.817 533.136 648.767 533.136 648.727 533.136ZM606.327 532.216C606.277 532.216 606.227 532.206 606.177 532.196C604.927 531.806 603.677 531.376 602.457 530.916C602.207 530.816 602.077 530.536 602.167 530.286C602.277 530.026 602.557 529.896 602.807 529.996C604.007 530.446 605.237 530.876 606.477 531.256C606.737 531.336 606.877 531.606 606.797 531.866C606.727 532.076 606.537 532.216 606.327 532.216ZM656.087 530.526C655.897 530.526 655.727 530.416 655.637 530.236C655.527 529.986 655.637 529.706 655.877 529.586C657.037 529.066 658.197 528.486 659.347 527.866C659.587 527.736 659.877 527.826 660.007 528.066C660.137 528.306 660.047 528.596 659.807 528.726C658.637 529.356 657.457 529.946 656.277 530.476C656.217 530.516 656.147 530.526 656.087 530.526ZM599.017 529.466C598.947 529.466 598.887 529.456 598.817 529.426C597.617 528.896 596.427 528.326 595.267 527.736C595.027 527.616 594.927 527.316 595.057 527.076C595.177 526.836 595.477 526.746 595.717 526.866C596.857 527.446 598.037 528.006 599.217 528.536C599.467 528.646 599.577 528.936 599.467 529.176C599.387 529.356 599.207 529.466 599.017 529.466ZM662.947 526.816C662.787 526.816 662.627 526.736 662.537 526.586C662.397 526.356 662.457 526.056 662.687 525.916C663.767 525.236 664.847 524.496 665.887 523.736C666.107 523.576 666.407 523.626 666.567 523.846C666.727 524.066 666.677 524.366 666.457 524.526C665.397 525.296 664.297 526.046 663.197 526.736C663.127 526.796 663.037 526.816 662.947 526.816ZM669.267 522.226C669.127 522.226 668.987 522.166 668.887 522.046C668.717 521.836 668.747 521.526 668.947 521.356C669.937 520.536 670.917 519.666 671.847 518.786C672.047 518.596 672.347 518.606 672.537 518.806C672.727 519.006 672.717 519.316 672.517 519.496C671.567 520.396 670.577 521.266 669.567 522.106C669.487 522.186 669.377 522.226 669.267 522.226ZM674.937 516.866C674.817 516.866 674.697 516.826 674.607 516.736C674.407 516.556 674.397 516.246 674.577 516.046C675.457 515.096 676.317 514.116 677.117 513.126C677.287 512.916 677.597 512.886 677.807 513.056C678.017 513.226 678.047 513.536 677.877 513.746C677.057 514.756 676.197 515.756 675.297 516.716C675.207 516.816 675.067 516.866 674.937 516.866ZM679.847 510.796C679.747 510.796 679.657 510.766 679.567 510.706C679.347 510.556 679.287 510.246 679.447 510.026C680.187 508.956 680.887 507.856 681.527 506.766C681.667 506.536 681.967 506.456 682.197 506.586C682.427 506.726 682.507 507.026 682.377 507.256C681.727 508.366 681.017 509.486 680.257 510.576C680.157 510.726 679.997 510.796 679.847 510.796ZM683.777 504.056C683.707 504.056 683.637 504.046 683.567 504.006C683.327 503.886 683.217 503.596 683.337 503.356C683.897 502.176 684.397 500.976 684.817 499.796C684.907 499.546 685.187 499.406 685.437 499.506C685.687 499.596 685.827 499.876 685.727 500.126C685.287 501.336 684.777 502.566 684.207 503.776C684.127 503.946 683.957 504.056 683.777 504.056ZM686.397 496.716C686.357 496.716 686.317 496.716 686.287 496.706C686.027 496.646 685.867 496.376 685.927 496.116C686.147 495.216 686.317 494.306 686.457 493.416C686.497 493.146 686.747 492.966 687.017 493.006C687.287 493.046 687.467 493.296 687.427 493.566C687.287 494.486 687.107 495.426 686.877 496.346C686.817 496.566 686.617 496.716 686.397 496.716Z" fill="white"/>
</g>
<g id="Group_3">
<path id="Vector_3" d="M256.377 106.089C257.226 106.331 258.084 106.6 258.918 106.869C259.117 106.934 259.225 107.15 259.16 107.349C259.095 107.548 258.887 107.658 258.68 107.591C257.856 107.316 257.011 107.059 256.169 106.819L255.803 106.716C255.602 106.658 255.485 106.448 255.542 106.246C255.6 106.045 255.81 105.928 256.011 105.985L256.377 106.089ZM253.072 105.245C253.266 105.3 253.38 105.494 253.339 105.692C253.29 105.895 253.092 106.024 252.888 105.974C251.92 105.755 250.93 105.553 249.938 105.384C249.731 105.349 249.594 105.149 249.629 104.942C249.664 104.734 249.864 104.598 250.072 104.632C251.07 104.804 252.075 105.01 253.059 105.233C253.057 105.241 253.064 105.243 253.072 105.245ZM261.745 107.891C261.76 107.896 261.767 107.898 261.782 107.902C262.726 108.267 263.668 108.665 264.589 109.08C264.782 109.167 264.863 109.392 264.778 109.577C264.691 109.77 264.466 109.851 264.281 109.766C263.375 109.355 262.438 108.967 261.509 108.606C261.315 108.526 261.214 108.312 261.294 108.118C261.362 107.935 261.559 107.838 261.745 107.891ZM247.117 104.202C247.295 104.253 247.408 104.422 247.387 104.609C247.36 104.819 247.173 104.967 246.963 104.94C245.974 104.819 244.966 104.71 243.972 104.636C243.767 104.618 243.61 104.436 243.62 104.23C243.638 104.025 243.82 103.868 244.026 103.878C245.035 103.956 246.053 104.06 247.057 104.185C247.079 104.191 247.094 104.196 247.117 104.202ZM267.266 110.374C267.289 110.38 267.311 110.387 267.339 110.403C268.238 110.868 269.137 111.358 270.009 111.864C270.188 111.971 270.252 112.199 270.144 112.378C270.037 112.557 269.809 112.621 269.63 112.513C268.774 112.012 267.882 111.524 266.996 111.07C266.812 110.978 266.733 110.746 266.833 110.565C266.912 110.402 267.095 110.325 267.266 110.374ZM241.086 103.734C241.25 103.781 241.36 103.933 241.358 104.109C241.355 104.318 241.178 104.485 240.972 104.475C240.004 104.449 238.99 104.475 237.98 104.542C237.775 104.556 237.593 104.399 237.582 104.186C237.567 103.981 237.724 103.8 237.937 103.788C238.971 103.72 240 103.699 240.993 103.723C241.019 103.715 241.056 103.725 241.086 103.734ZM272.491 113.416C272.529 113.427 272.564 113.445 272.599 113.463C273.448 114.019 274.288 114.605 275.1 115.206C275.265 115.334 275.302 115.57 275.182 115.738C275.045 115.908 274.809 115.945 274.644 115.818C273.845 115.228 273.019 114.646 272.176 114.1C271.999 113.985 271.952 113.754 272.067 113.578C272.163 113.436 272.335 113.372 272.491 113.416ZM235.047 104.117C235.189 104.158 235.292 104.276 235.321 104.429C235.35 104.639 235.208 104.824 235.004 104.863C234.029 105.004 233.042 105.19 232.053 105.408C231.847 105.454 231.65 105.326 231.604 105.119C231.558 104.913 231.686 104.716 231.893 104.67C232.898 104.448 233.903 104.259 234.895 104.114C234.948 104.097 235.002 104.105 235.047 104.117ZM277.356 117.017C277.408 117.032 277.451 117.052 277.496 117.089C278.278 117.739 279.044 118.416 279.784 119.102C279.937 119.242 279.948 119.487 279.8 119.639C279.66 119.792 279.417 119.795 279.264 119.655C278.537 118.981 277.776 118.313 277.009 117.668C276.846 117.533 276.826 117.293 276.959 117.138C277.057 117.021 277.214 116.977 277.356 117.017ZM229.147 105.427C229.266 105.461 229.369 105.554 229.404 105.685C229.459 105.886 229.351 106.097 229.15 106.153C228.201 106.43 227.239 106.753 226.302 107.099C226.105 107.171 225.892 107.07 225.819 106.872C225.746 106.674 225.847 106.461 226.045 106.389C226.999 106.04 227.978 105.714 228.944 105.433C229.009 105.404 229.08 105.408 229.147 105.427ZM223.463 107.507C223.567 107.536 223.659 107.611 223.708 107.722C223.79 107.914 223.702 108.139 223.517 108.223C222.605 108.624 221.69 109.065 220.81 109.523C220.621 109.622 220.399 109.551 220.3 109.362C220.201 109.172 220.274 108.943 220.462 108.852C221.361 108.383 222.283 107.944 223.214 107.533C223.291 107.49 223.381 107.483 223.463 107.507ZM218.1 110.298C218.189 110.324 218.27 110.379 218.318 110.465C218.429 110.642 218.371 110.875 218.194 110.986C217.337 111.507 216.488 112.055 215.682 112.623C215.51 112.744 215.273 112.7 215.152 112.529C215.032 112.358 215.075 112.12 215.247 112C216.072 111.421 216.925 110.858 217.8 110.334C217.888 110.278 218.003 110.271 218.1 110.298ZM213.153 113.78C213.227 113.802 213.288 113.843 213.342 113.907C213.474 114.065 213.453 114.309 213.287 114.439C212.509 115.08 211.754 115.751 211.045 116.427C210.892 116.569 210.652 116.565 210.508 116.419C210.366 116.266 210.37 116.026 210.516 115.882C211.236 115.193 212.003 114.508 212.8 113.857C212.907 113.767 213.041 113.749 213.153 113.78ZM208.793 117.97C208.846 117.985 208.896 118.007 208.939 118.052C209.093 118.192 209.113 118.431 208.973 118.585C208.305 119.345 207.678 120.134 207.114 120.924C206.994 121.091 206.756 121.136 206.591 121.009C206.424 120.888 206.379 120.65 206.506 120.485C207.091 119.677 207.732 118.868 208.414 118.087C208.509 117.977 208.659 117.932 208.793 117.97ZM205.283 122.884C205.313 122.893 205.343 122.901 205.363 122.915C205.544 123.015 205.606 123.25 205.506 123.431C205.151 124.055 204.832 124.697 204.538 125.331C204.451 125.524 204.227 125.605 204.034 125.518C203.841 125.431 203.76 125.206 203.847 125.013C204.147 124.357 204.48 123.695 204.847 123.058C204.938 122.907 205.119 122.838 205.283 122.884Z" fill="white"/>
</g>
<g id="cloud-sm" clip-path="url(#clip1_4205_22475)">
<animateTransform attributeName="transform" type="translate" keyTimes="0;1" values="-210 1; 750 1" dur="40.66666666666667s" repeatCount="indefinite" begin="-637.57s"></animateTransform>
<g id="Group_4">
<g id="Group_5">
<path id="Vector_4" d="M205.825 260.999C196.919 260.999 188.026 260.673 179.331 260.347C177.353 260.277 174.931 259.95 173.714 258.074C172.485 256.174 172.907 253.469 174.65 252.164C175.539 251.488 176.78 251.266 177.962 251.546C178.301 251.628 178.629 251.744 178.921 251.907C178.851 250.893 179.027 249.856 179.448 248.865C180.162 247.198 181.472 245.905 183.041 245.333C184.609 244.762 186.446 244.902 188.072 245.718C188.95 246.161 189.711 246.767 190.296 247.478C190.588 245.17 191.677 242.897 193.432 241.009C195.889 238.398 199.307 236.894 202.618 236.999C208.493 237.197 213.77 241.965 215.058 247.84C215.491 247.21 216.064 246.651 216.766 246.196C218.311 245.194 220.242 244.844 221.927 245.252C224.958 245.998 227.415 248.912 227.906 252.339C228.164 254.122 227.871 255.812 227.099 257.083C225.297 260.043 221.47 260.591 217.971 260.743C213.934 260.929 209.874 260.999 205.825 260.999ZM176.944 252.549C176.347 252.549 175.774 252.723 175.329 253.061C174.077 254.006 173.761 256.057 174.674 257.444C175.61 258.878 177.681 259.146 179.378 259.204C192.016 259.67 205.076 260.16 217.925 259.624C221.119 259.496 224.607 259.018 226.128 256.512C226.771 255.463 227.005 254.041 226.783 252.514C226.362 249.541 224.255 247.012 221.669 246.371C220.265 246.033 218.674 246.324 217.398 247.152C216.275 247.886 215.537 248.935 215.338 250.089C215.292 250.381 215.034 250.579 214.742 250.555C214.449 250.532 214.215 250.299 214.203 250.019C213.911 243.783 208.586 238.34 202.583 238.13C199.599 238.037 196.51 239.389 194.275 241.778C192.168 244.028 191.127 246.884 191.408 249.6C191.443 249.891 191.244 250.159 190.951 250.217C190.659 250.276 190.378 250.101 190.296 249.821C189.91 248.527 188.915 247.397 187.558 246.721C186.212 246.044 184.702 245.928 183.427 246.394C182.151 246.86 181.086 247.921 180.489 249.297C179.893 250.684 179.869 252.187 180.419 253.423C180.548 253.703 180.419 254.041 180.138 254.169C179.858 254.297 179.518 254.18 179.389 253.901C179.085 253.295 178.465 252.828 177.681 252.642C177.435 252.584 177.189 252.549 176.944 252.549Z" fill="white"/>
</g>
<g id="Group_6" opacity="0.1294">
<path id="Vector_5" opacity="0.1294" d="M227.286 255.137C227.029 254.402 226.034 254.181 225.437 254.624C225.379 254.647 225.203 254.752 225.063 254.845C225.075 254.834 225.075 254.834 225.086 254.822C224.759 255.032 224.408 255.207 224.045 255.358C223.916 255.405 223.787 255.451 223.659 255.51C224.29 255.242 223.659 255.51 223.331 255.603C219.797 256.675 217.375 256.897 214.344 257.153C210.868 257.258 207.393 257.025 203.917 257.025C198.78 256.687 193.631 257.188 188.482 257.095C185.744 256.967 180.22 256.862 179.003 256.757C177.037 256.372 177.482 256.314 176.558 255.72C175.153 254.076 172.848 255.859 174.229 257.515C176.675 259.939 179.202 259.834 182.409 259.881C184.62 259.916 186.832 260.079 189.044 260.056C191.408 259.997 193.771 259.741 196.147 259.823C199.365 259.927 202.595 259.904 205.813 259.939C208.539 259.951 211.266 260.126 213.981 260.009C217.129 259.892 222.067 258.715 223.846 258.377C224.911 258.144 226.022 257.748 226.795 256.932C227.005 256.71 227.158 256.431 227.263 256.151C227.415 255.848 227.45 255.463 227.286 255.137Z" fill="black"/>
</g>
</g>
</g>
<g id="cloud-md" clip-path="url(#clip2_4205_22475)">
<animateTransform attributeName="transform" type="translate" keyTimes="0;1" values="-700 1; 380 1" dur="70.66666666666667s" repeatCount="indefinite" begin="-200.57s"></animateTransform>
<g id="Group_7">
<g id="Group_8">
<path id="Vector_6" d="M644.439 114.999C626.143 114.999 607.87 114.319 590.007 113.639C585.944 113.493 580.967 112.813 578.466 108.904C575.942 104.946 576.807 99.3118 580.39 96.592C582.217 95.1836 584.765 94.7222 587.194 95.305C587.891 95.475 588.564 95.7178 589.165 96.0578C589.021 93.9451 589.382 91.7839 590.247 89.7197C591.714 86.2472 594.407 83.5517 597.628 82.3618C600.85 81.1719 604.625 81.4633 607.967 83.1632C609.77 84.0859 611.332 85.3487 612.535 86.83C613.136 82.0218 615.372 77.2865 618.978 73.3526C624.027 67.913 631.047 64.7805 637.851 64.999C649.921 65.4118 660.764 75.3438 663.409 87.5828C664.298 86.2715 665.476 85.1059 666.919 84.1588C670.092 82.0704 674.059 81.3419 677.522 82.1918C683.749 83.746 688.798 89.8169 689.807 96.9563C690.336 100.672 689.735 104.193 688.148 106.84C684.446 113.008 676.584 114.149 669.395 114.465C661.101 114.853 652.758 114.999 644.439 114.999ZM585.102 97.3934C583.876 97.3934 582.698 97.7576 581.784 98.4619C579.212 100.429 578.562 104.703 580.438 107.593C582.361 110.579 586.617 111.138 590.103 111.259C616.069 112.231 642.9 113.251 669.299 112.134C675.863 111.866 683.027 110.871 686.153 105.65C687.475 103.464 687.956 100.502 687.499 97.3205C686.634 91.1282 682.306 85.8586 676.993 84.523C674.108 83.8188 670.838 84.4259 668.217 86.1501C665.909 87.6799 664.394 89.8654 663.986 92.2695C663.889 92.8766 663.361 93.2894 662.759 93.2409C662.158 93.1923 661.678 92.7066 661.654 92.1238C661.052 79.1321 650.113 67.7916 637.779 67.3545C631.648 67.1603 625.301 69.9772 620.709 74.9553C616.381 79.642 614.242 85.5915 614.819 91.2496C614.891 91.8567 614.482 92.4152 613.881 92.5366C613.28 92.6581 612.703 92.2938 612.535 91.711C611.741 89.0155 609.698 86.66 606.909 85.2516C604.144 83.8431 601.042 83.6003 598.422 84.5716C595.801 85.543 593.613 87.7528 592.387 90.6182C591.161 93.508 591.113 96.6406 592.243 99.2146C592.507 99.7975 592.243 100.502 591.666 100.769C591.089 101.036 590.391 100.793 590.127 100.21C589.502 98.9475 588.228 97.9762 586.617 97.5876C586.112 97.4662 585.607 97.3934 585.102 97.3934Z" fill="white"/>
</g>
<g id="Group_9" opacity="0.1294">
<path id="Vector_7" opacity="0.1294" d="M688.533 102.784C688.004 101.255 685.96 100.793 684.734 101.716C684.614 101.765 684.253 101.983 683.965 102.177C683.989 102.153 683.989 102.153 684.013 102.129C683.339 102.566 682.618 102.93 681.873 103.246C681.608 103.343 681.344 103.44 681.079 103.562C682.378 103.003 681.079 103.562 680.406 103.756C673.145 105.99 668.169 106.451 661.942 106.986C654.801 107.204 647.66 106.718 640.52 106.718C629.965 106.014 619.386 107.058 608.808 106.864C603.182 106.597 591.834 106.378 589.333 106.16C585.294 105.359 586.208 105.237 584.308 103.999C581.423 100.575 576.687 104.29 579.524 107.738C584.549 112.789 589.742 112.571 596.329 112.668C600.874 112.741 605.418 113.081 609.962 113.032C614.818 112.911 619.675 112.377 624.555 112.546C631.167 112.765 637.803 112.716 644.415 112.789C650.017 112.814 655.618 113.178 661.196 112.935C667.664 112.692 677.81 110.24 681.464 109.535C683.652 109.05 685.936 108.224 687.523 106.524C687.956 106.063 688.268 105.48 688.485 104.897C688.797 104.266 688.869 103.464 688.533 102.784Z" fill="black"/>
</g>
</g>
</g>
<g id="Group_10">
<g id="Group_11">
<g id="Group_12">
<path id="Vector_8" d="M671.212 372.67C661.622 372.67 652.482 367.69 647.362 359.67C642.172 351.54 642.062 338.54 644.942 331.16C647.262 325.22 655.732 313.98 671.212 313.98C678.732 313.98 685.682 316.74 690.782 321.74C695.702 326.57 698.632 333.17 699.032 340.31C699.712 352.19 695.082 359.72 691.092 363.95C685.852 369.49 678.612 372.67 671.212 372.67ZM645.862 331.52C643.062 338.7 643.332 351.52 648.192 359.15C653.132 366.89 661.952 371.7 671.212 371.7C678.342 371.7 685.322 368.63 690.372 363.29C694.242 359.2 698.712 351.9 698.052 340.37C697.222 325.64 685.932 314.95 671.212 314.95C656.262 314.95 648.092 325.79 645.862 331.52Z" fill="white"/>
</g>
<g id="Group_13">
<path id="Vector_9" d="M670.703 363.57C664.723 363.57 658.763 360.47 655.283 355.46C651.663 350.26 650.813 343.25 653.053 337.17C655.463 330.64 660.673 325.58 666.333 324.28C671.033 323.2 676.133 323.92 680.343 326.25C684.553 328.58 687.853 332.52 689.403 337.05C690.333 339.77 690.713 342.83 690.573 346.41C690.403 350.76 688.153 355.24 684.703 358.08C680.523 361.52 676.563 363.2 671.863 363.52C671.473 363.56 671.093 363.57 670.703 363.57ZM666.563 325.24C661.213 326.47 656.273 331.28 653.973 337.52C651.843 343.31 652.653 349.97 656.083 354.91C659.603 359.97 665.763 362.97 671.793 362.56C676.283 362.26 680.073 360.65 684.083 357.34C687.333 354.66 689.443 350.47 689.603 346.38C689.733 342.93 689.373 339.98 688.483 337.37C687.013 333.06 683.883 329.32 679.883 327.11C675.873 324.9 671.023 324.22 666.563 325.24Z" fill="white"/>
</g>
<g id="Group_14">
<path id="Vector_10" d="M670.943 354.4C667.653 354.4 664.373 352.73 662.453 350.03C660.463 347.23 659.993 343.45 661.223 340.17C662.563 336.6 665.373 333.94 668.543 333.23C671.123 332.65 673.933 333.04 676.243 334.29C678.563 335.55 680.373 337.67 681.223 340.11C681.733 341.57 681.943 343.21 681.863 345.13C681.773 347.49 680.523 349.91 678.613 351.46C676.323 353.31 674.153 354.21 671.573 354.38C671.363 354.39 671.153 354.4 670.943 354.4ZM670.943 333.95C670.203 333.95 669.473 334.03 668.753 334.19C665.943 334.82 663.343 337.3 662.133 340.52C661.013 343.5 661.433 346.93 663.243 349.47C665.093 352.07 668.333 353.62 671.503 353.41C673.873 353.25 675.873 352.42 677.993 350.71C679.693 349.34 680.793 347.19 680.883 345.11C680.953 343.32 680.763 341.79 680.293 340.45C679.523 338.23 677.873 336.31 675.763 335.17C674.313 334.36 672.623 333.95 670.943 333.95Z" fill="white"/>
</g>
<g id="Group_15">
<path id="Vector_11" d="M684.303 354.811C684.283 354.811 684.253 354.801 684.233 354.791C684.153 354.751 684.123 354.651 684.163 354.571C685.623 351.621 686.903 348.541 687.963 345.411C687.993 345.321 688.083 345.281 688.173 345.311C688.253 345.341 688.303 345.431 688.273 345.521C687.213 348.661 685.923 351.751 684.463 354.721C684.423 354.781 684.363 354.811 684.303 354.811Z" fill="white"/>
</g>
<g id="Group_16">
<path id="Vector_12" d="M679.213 360.159C679.183 360.159 679.163 360.149 679.143 360.139C679.063 360.099 679.033 359.999 679.073 359.919C682.413 353.449 685.253 346.659 687.523 339.719C687.553 339.629 687.643 339.589 687.733 339.619C687.823 339.649 687.863 339.739 687.833 339.829C685.563 346.779 682.713 353.599 679.363 360.079C679.333 360.119 679.273 360.159 679.213 360.159Z" fill="white"/>
</g>
<g id="Group_17">
<path id="Vector_13" d="M676.643 360.84C676.623 360.84 676.603 360.84 676.583 360.83C676.503 360.79 676.463 360.7 676.503 360.62C679.903 352.79 683.103 344.75 686.013 336.73C686.043 336.65 686.133 336.6 686.223 336.63C686.303 336.66 686.353 336.75 686.323 336.84C683.413 344.88 680.213 352.92 676.803 360.75C676.763 360.8 676.703 360.84 676.643 360.84Z" fill="white"/>
</g>
<g id="Group_18">
<path id="Vector_14" d="M682.383 339.47C682.363 339.47 682.343 339.47 682.313 339.46C682.233 339.42 682.193 339.33 682.233 339.25C683.113 337.28 683.933 335.24 684.653 333.21C684.683 333.13 684.773 333.08 684.863 333.11C684.943 333.14 684.993 333.23 684.963 333.32C684.233 335.37 683.423 337.41 682.533 339.39C682.503 339.43 682.453 339.47 682.383 339.47Z" fill="white"/>
</g>
<g id="Group_19">
<path id="Vector_15" d="M680.623 336.742C680.603 336.742 680.583 336.742 680.563 336.732C680.483 336.702 680.443 336.602 680.473 336.522L682.763 330.952C682.793 330.872 682.893 330.832 682.973 330.862C683.053 330.892 683.093 330.992 683.063 331.072L680.773 336.642C680.743 336.702 680.683 336.742 680.623 336.742Z" fill="white"/>
</g>
<g id="Group_20">
<path id="Vector_16" d="M678.813 334.012C678.793 334.012 678.773 334.012 678.753 334.002C678.673 333.972 678.633 333.872 678.663 333.792L680.643 328.952C680.673 328.872 680.773 328.832 680.853 328.862C680.933 328.892 680.973 328.992 680.943 329.072L678.963 333.912C678.943 333.972 678.873 334.012 678.813 334.012Z" fill="white"/>
</g>
<g id="Group_21">
<path id="Vector_17" d="M675.923 332.39C675.903 332.39 675.883 332.39 675.863 332.38C675.783 332.34 675.743 332.25 675.773 332.17C676.453 330.59 677.063 328.95 677.583 327.31C677.613 327.22 677.703 327.18 677.783 327.2C677.873 327.23 677.913 327.32 677.893 327.4C677.363 329.05 676.753 330.7 676.073 332.29C676.053 332.35 675.993 332.39 675.923 332.39Z" fill="white"/>
</g>
<g id="Group_22">
<path id="Vector_18" d="M673.163 331.371C673.143 331.371 673.123 331.371 673.103 331.361C673.023 331.331 672.983 331.231 673.013 331.151C673.643 329.621 674.183 328.031 674.623 326.431C674.643 326.341 674.733 326.291 674.823 326.321C674.913 326.341 674.963 326.431 674.933 326.521C674.493 328.131 673.953 329.731 673.313 331.281C673.293 331.331 673.233 331.371 673.163 331.371Z" fill="white"/>
</g>
<g id="Group_23">
<path id="Vector_19" d="M670.113 331.461C670.103 331.461 670.083 331.461 670.073 331.451C669.983 331.431 669.933 331.341 669.963 331.251L671.453 326.031C671.473 325.941 671.573 325.891 671.653 325.921C671.743 325.941 671.793 326.031 671.763 326.121L670.273 331.341C670.243 331.421 670.183 331.461 670.113 331.461Z" fill="white"/>
</g>
<g id="Group_24">
<path id="Vector_20" d="M666.743 333.02C666.723 333.02 666.713 333.02 666.693 333.01C666.603 332.98 666.563 332.89 666.583 332.81L668.533 326.56C668.563 326.47 668.653 326.43 668.733 326.45C668.823 326.48 668.863 326.57 668.843 326.65L666.893 332.9C666.883 332.97 666.813 333.02 666.743 333.02Z" fill="white"/>
</g>
<g id="Group_25">
<path id="Vector_21" d="M662.873 334.53C662.853 334.53 662.833 334.53 662.813 334.52C662.733 334.49 662.683 334.4 662.713 334.31L665.353 327.14C665.383 327.06 665.483 327.01 665.563 327.04C665.643 327.07 665.693 327.16 665.663 327.25L663.023 334.42C663.003 334.49 662.943 334.53 662.873 334.53Z" fill="white"/>
</g>
<g id="Group_26">
<path id="Vector_22" d="M673.183 361.901C673.153 361.901 673.133 361.891 673.103 361.881C673.023 361.841 672.993 361.741 673.033 361.661C674.213 359.481 675.253 357.191 676.103 354.861C676.133 354.781 676.223 354.731 676.313 354.761C676.393 354.791 676.443 354.881 676.413 354.971C675.553 357.321 674.513 359.621 673.323 361.811C673.303 361.871 673.243 361.901 673.183 361.901Z" fill="white"/>
</g>
<g id="Group_27">
<path id="Vector_23" d="M670.583 361.77C670.553 361.77 670.523 361.76 670.503 361.75C670.423 361.7 670.403 361.6 670.453 361.53C671.623 359.62 672.593 357.57 673.343 355.46C673.373 355.38 673.463 355.33 673.553 355.36C673.633 355.39 673.683 355.48 673.653 355.57C672.893 357.71 671.913 359.77 670.733 361.7C670.683 361.74 670.633 361.77 670.583 361.77Z" fill="white"/>
</g>
<g id="Group_28">
<path id="Vector_24" d="M668.013 361.39C667.993 361.39 667.963 361.38 667.943 361.37C667.863 361.33 667.833 361.23 667.873 361.15C668.763 359.34 669.583 357.47 670.333 355.59C670.363 355.51 670.463 355.46 670.543 355.5C670.623 355.53 670.663 355.63 670.633 355.71C669.883 357.6 669.053 359.48 668.163 361.3C668.133 361.35 668.073 361.39 668.013 361.39Z" fill="white"/>
</g>
<g id="Group_29">
<path id="Vector_25" d="M661.343 331.761C661.323 331.761 661.303 331.761 661.293 331.751C661.213 331.721 661.163 331.631 661.193 331.541L662.233 328.531C662.263 328.451 662.353 328.401 662.443 328.431C662.523 328.461 662.573 328.551 662.543 328.641L661.503 331.651C661.473 331.721 661.413 331.761 661.343 331.761Z" fill="white"/>
</g>
<g id="Group_30">
<path id="Vector_26" d="M654.233 347.941C654.213 347.941 654.183 347.941 654.163 347.931C654.083 347.891 654.043 347.801 654.083 347.711C655.913 343.671 657.663 339.531 659.293 335.411C659.323 335.331 659.423 335.281 659.503 335.321C659.583 335.351 659.623 335.451 659.593 335.531C657.963 339.661 656.213 343.801 654.383 347.851C654.353 347.901 654.293 347.941 654.233 347.941Z" fill="white"/>
</g>
<g id="Group_31">
<path id="Vector_27" d="M653.893 342.08C653.863 342.08 653.843 342.07 653.813 342.06C653.733 342.02 653.703 341.92 653.743 341.84C655.103 339.24 656.373 336.56 657.513 333.85C657.553 333.77 657.643 333.73 657.723 333.76C657.803 333.79 657.843 333.89 657.813 333.97C656.663 336.68 655.393 339.38 654.033 341.98C654.013 342.04 653.953 342.08 653.893 342.08Z" fill="white"/>
</g>
<g id="Group_32">
<path id="Vector_28" d="M655.313 351.69C655.293 351.69 655.273 351.69 655.253 351.68C655.173 351.65 655.133 351.55 655.163 351.47L661.183 337.28C661.223 337.2 661.313 337.16 661.393 337.19C661.473 337.22 661.513 337.32 661.483 337.4L655.463 351.59C655.433 351.66 655.373 351.69 655.313 351.69Z" fill="white"/>
</g>
<g id="Group_33">
<path id="Vector_29" d="M656.733 354.32C656.713 354.32 656.693 354.32 656.663 354.31C656.583 354.27 656.543 354.18 656.583 354.09L659.613 347.33C659.653 347.25 659.743 347.21 659.833 347.25C659.913 347.29 659.953 347.38 659.913 347.47L656.883 354.23C656.853 354.28 656.793 354.32 656.733 354.32Z" fill="white"/>
</g>
<g id="Group_34">
<path id="Vector_30" d="M658.653 356.28C658.633 356.28 658.603 356.28 658.583 356.27C658.503 356.23 658.463 356.14 658.503 356.05L661.123 350.26C661.163 350.18 661.253 350.14 661.343 350.18C661.423 350.22 661.463 350.31 661.423 350.4L658.803 356.19C658.773 356.25 658.713 356.28 658.653 356.28Z" fill="white"/>
</g>
<g id="Group_35">
<path id="Vector_31" d="M660.633 357.889C660.613 357.889 660.583 357.889 660.563 357.879C660.483 357.839 660.443 357.749 660.483 357.659L662.693 352.779C662.733 352.699 662.823 352.659 662.913 352.699C662.993 352.739 663.033 352.829 662.993 352.919L660.783 357.809C660.763 357.849 660.703 357.889 660.633 357.889Z" fill="white"/>
</g>
<g id="Group_36">
<path id="Vector_32" d="M662.793 359.389C662.773 359.389 662.743 359.389 662.723 359.379C662.643 359.339 662.603 359.249 662.643 359.159L664.863 354.279C664.903 354.199 664.993 354.159 665.083 354.199C665.163 354.239 665.203 354.329 665.163 354.419L662.943 359.299C662.913 359.349 662.853 359.389 662.793 359.389Z" fill="white"/>
</g>
<g id="Group_37">
<path id="Vector_33" d="M665.403 361.06C665.383 361.06 665.353 361.06 665.333 361.05C665.253 361.01 665.213 360.92 665.253 360.83L667.503 355.84C667.543 355.76 667.633 355.72 667.723 355.76C667.803 355.8 667.843 355.89 667.803 355.98L665.553 360.97C665.523 361.03 665.463 361.06 665.403 361.06Z" fill="white"/>
</g>
<g id="Group_38" opacity="0.1294">
<path id="Vector_34" opacity="0.1294" d="M642.413 320.78C642.883 320.05 643.603 320.28 644.143 320.78C644.653 321.16 645.143 321.55 645.663 321.92C647.873 323.6 650.113 325.05 651.763 326.51C652.363 327.25 651.443 328.3 650.643 327.81C648.663 326.23 646.573 324.81 644.523 323.33C643.983 322.96 643.453 322.56 642.913 322.19C642.403 321.95 642.093 321.31 642.413 320.78Z" fill="white"/>
</g>
<g id="Group_39">
<g id="Group_40" opacity="0.1294">
<path id="Vector_35" opacity="0.1294" d="M666.503 350.49C666.333 350.41 666.343 350.41 666.503 350.49V350.49Z" fill="white"/>
</g>
<g id="Group_41" opacity="0.1294">
<path id="Vector_36" opacity="0.1294" d="M679.543 345.779C679.533 345.809 679.513 345.839 679.503 345.879C679.503 345.869 679.513 345.829 679.543 345.779Z" fill="white"/>
</g>
<g id="Group_42" opacity="0.1294">
<path id="Vector_37" opacity="0.1294" d="M667.853 353.48C668.683 353.9 669.713 353.74 670.613 353.68C671.573 353.61 672.533 353.64 673.483 353.45C676.533 352.85 679.503 350.81 680.753 347.9C681.393 346.42 681.503 344.79 681.403 343.2C681.343 342.33 681.183 341.45 680.983 340.61C680.933 340.41 680.873 340.21 680.813 340C680.413 340.13 680.103 340.49 680.213 341.04C680.533 342.72 680.453 343.76 679.533 345.77C679.543 345.76 679.543 345.74 679.553 345.73C679.143 346.71 678.513 347.77 677.603 348.57C676.083 349.87 675.023 350.5 673.333 351.04C671.793 351.43 669.653 351.41 668.413 351.13C667.783 350.98 667.173 350.76 666.573 350.51C666.543 350.5 666.523 350.49 666.503 350.48C666.523 350.49 666.543 350.5 666.563 350.51C665.983 350.29 665.413 349.66 664.763 349.91C664.273 350.05 663.973 350.66 664.183 351.13C664.363 351.62 664.893 351.87 665.293 352.16C666.013 352.63 666.763 353.08 667.553 353.42C667.643 353.42 667.753 353.43 667.853 353.48Z" fill="white"/>
</g>
</g>
<g id="Group_43" opacity="0.1294">
<path id="Vector_38" opacity="0.1294" d="M675.923 371.41C674.253 371.83 672.583 372.07 670.963 372.18C670.963 372.16 670.973 372.15 670.973 372.13C670.983 372.09 670.993 372.05 671.003 372.01C671.053 371.79 671.013 371.56 670.893 371.36C670.853 371.3 670.813 371.23 670.763 371.17C670.753 371.16 670.743 371.14 670.733 371.13C670.723 371.12 670.703 371.11 670.693 371.09C670.623 370.83 670.513 370.6 670.383 370.38C670.973 370.29 671.613 370.18 672.343 370.03C674.823 369.54 676.093 369.2 678.073 368.41C679.563 367.78 681.093 367.26 682.553 366.58C685.433 365.03 685.613 364.9 687.663 363.47C690.403 361.25 692.343 359.61 693.483 356.95C694.763 354.5 695.963 352.24 696.643 349.12C696.653 349.03 696.703 348.84 696.723 348.81C696.733 348.76 696.783 348.55 696.813 348.42C696.843 348.24 696.923 348.08 697.063 347.96C697.513 347.56 698.313 347.96 698.233 348.56C698.113 349.59 697.923 350.61 697.633 351.6C697.123 353.38 696.403 355.09 695.563 356.74C695.033 357.88 694.563 359.05 693.853 360.09C692.593 361.89 691.863 362.48 690.283 363.88C689.633 364.49 688.933 365.05 688.203 365.57C688.653 365.75 688.803 366.42 688.383 366.74C686.293 368.43 683.823 369.65 681.303 370.6C680.073 371.04 678.813 371.43 677.523 371.64C677.063 371.66 676.533 371.88 676.113 371.62C676.033 371.56 675.963 371.49 675.923 371.41Z" fill="white"/>
</g>
<g id="Group_44" opacity="0.1294">
<path id="Vector_39" opacity="0.1294" d="M690.193 340.77C690.133 340.76 690.063 340.75 689.993 340.75C689.243 340.78 689.053 341.44 689.103 342.07C689.093 342.76 689.093 343.46 689.073 344.15C689.063 345.41 688.803 346.29 688.433 347.92C687.203 351.68 686.913 351.78 684.903 354.04C683.933 355.18 682.883 356.4 682.223 356.76C681.443 357.24 680.683 357.75 679.893 358.21C678.943 358.71 677.783 359.22 677.673 359.25C677.163 359.4 676.553 359.57 675.923 359.73C675.913 359.93 675.803 360.13 675.583 360.2C674.433 360.53 673.213 360.68 672.033 360.81C670.863 360.94 669.683 360.98 668.503 360.96C666.873 360.93 665.233 360.76 663.613 360.48C663.483 360.98 663.643 361.56 664.153 361.84C666.223 362.81 668.543 363.04 670.803 363.17C672.703 363.22 674.563 362.79 676.403 362.35C679.223 361.85 681.373 360.27 682.963 358.97C682.883 359.03 682.813 359.09 682.733 359.15C683.583 358.48 683.293 358.73 684.073 358.11C685.563 356.72 686.973 355.22 688.153 353.56C689.263 351.71 689.953 349.62 690.433 347.53C690.463 347.4 690.493 347.27 690.523 347.13C690.493 345 690.403 342.89 690.193 340.77Z" fill="white"/>
</g>
</g>
<g id="dart">
<g id="Group_45">
<path id="Vector_40" d="M644.873 329.561C644.753 329.561 644.633 329.521 644.543 329.431C641.413 326.581 638.113 323.841 634.733 321.311C634.573 321.191 634.503 320.991 634.553 320.801C634.603 320.601 634.763 320.461 634.963 320.441C637.823 320.051 640.593 319.841 642.983 319.701C642.323 316.971 641.823 314.231 641.323 311.581C641.283 311.391 641.373 311.181 641.533 311.081C641.703 310.971 641.913 310.971 642.073 311.091C645.383 313.401 648.163 315.671 651.833 318.801C651.913 318.871 651.973 318.971 651.993 319.081C652.063 319.451 652.133 319.831 652.213 320.211C652.663 322.541 653.133 324.951 653.023 327.511C653.013 327.711 652.883 327.891 652.693 327.951C651.413 328.401 649.903 328.641 648.443 328.871C647.273 329.061 646.063 329.251 644.993 329.551C644.963 329.551 644.913 329.561 644.873 329.561ZM636.273 321.251C639.273 323.541 642.203 325.991 645.003 328.531C646.053 328.261 647.193 328.081 648.303 327.901C649.603 327.691 650.933 327.481 652.073 327.131C652.123 324.811 651.683 322.571 651.273 320.391C651.213 320.071 651.153 319.751 651.093 319.431C647.873 316.691 645.343 314.611 642.513 312.581C642.973 315.031 643.463 317.541 644.073 320.031C644.103 320.171 644.083 320.321 643.993 320.441C643.903 320.561 643.773 320.631 643.633 320.641C641.453 320.761 638.923 320.931 636.273 321.251Z" fill="white"/>
</g>
<g id="Group_46">
<path id="Vector_41" d="M670.483 343.291C670.363 343.291 670.253 343.251 670.153 343.161C659.723 333.671 648.743 324.551 637.513 316.071C637.293 315.901 637.253 315.601 637.413 315.381C637.573 315.161 637.883 315.121 638.093 315.281C649.353 323.781 660.353 332.921 670.803 342.431C671.003 342.611 671.013 342.921 670.833 343.121C670.753 343.231 670.613 343.291 670.483 343.291Z" fill="white"/>
</g>
<g id="Group_47" opacity="0.1294">
<path id="Vector_42" opacity="0.1294" d="M652.433 327.622C651.973 327.502 651.513 327.742 651.063 327.822C649.343 328.332 647.563 328.502 645.803 328.842C645.913 328.832 646.023 328.812 646.133 328.802C645.853 328.852 645.563 328.872 645.273 328.892L645.263 328.882C645.133 328.772 644.733 328.722 644.613 328.722C644.593 328.712 644.563 328.712 644.543 328.702C643.943 328.302 642.093 326.602 640.963 325.612C639.673 324.432 638.333 323.322 636.983 322.222C636.393 321.842 635.923 321.122 635.173 321.102C634.163 321.072 633.593 322.422 634.343 323.112C636.313 324.662 638.223 326.302 640.083 327.992C641.073 328.872 642.043 329.762 643.153 330.502C643.303 330.602 643.463 330.682 643.633 330.752C643.823 331.092 644.173 331.352 644.643 331.342C646.993 331.292 649.313 330.782 651.493 329.912C652.023 329.662 652.743 329.712 653.063 329.142C653.393 328.572 653.063 327.792 652.433 327.622Z" fill="white"/>
</g>
</g>
</g>
</g>
<defs>
<filter id="filter0_b_4205_22475" x="-140" y="-140" width="1194" height="881" filterUnits="userSpaceOnUse" color-interpolation-filters="sRGB">
<feFlood flood-opacity="0" result="BackgroundImageFix"/>
<feGaussianBlur in="BackgroundImage" stdDeviation="70"/>
<feComposite in2="SourceAlpha" operator="in" result="effect1_backgroundBlur_4205_22475"/>
<feBlend mode="normal" in="SourceGraphic" in2="effect1_backgroundBlur_4205_22475" result="shape"/>
</filter>
<linearGradient id="paint0_linear_4205_22475" x1="457" y1="0" x2="457" y2="601" gradientUnits="userSpaceOnUse">
<stop stop-color="#00D426"/>
<stop offset="1" stop-color="#00911A"/>
</linearGradient>
<linearGradient id="paint1_linear_4205_22475" x1="1089.27" y1="240.26" x2="777.56" y2="255.305" gradientUnits="userSpaceOnUse">
<stop stop-color="white"/>
<stop offset="1" stop-color="#EFEFEF" stop-opacity="0"/>
</linearGradient>
<linearGradient id="paint2_linear_4205_22475" x1="0" y1="0" x2="286.896" y2="231.921" gradientUnits="userSpaceOnUse">
<stop stop-color="white" stop-opacity="0.5"/>
<stop offset="1" stop-color="white" stop-opacity="0"/>
</linearGradient>
<clipPath id="clip0_4205_22475">
<rect width="49.32" height="65.83" fill="white" transform="translate(217.187 390) rotate(48.3466)"/>
</clipPath>
<clipPath id="clip1_4205_22475">
<rect width="55" height="24" fill="white" transform="translate(173 237)"/>
</clipPath>
<clipPath id="clip2_4205_22475">
<rect width="113" height="50" fill="white" transform="translate(577 65)"/>
</clipPath>
</defs>
</svg>
